PathFileType	4	(X/Y/Z)	C:/Users/beibeiliu/ov580/test_trc/User2\sequence.25_training_dense_left.trc
DataRate	CameraRate	NumFrames	NumMarkers	Units	OrigDataRate	OrigDataStartFrame	OrigNumFrames
120	120	11	19	mm	120	60	118
Frame#	Time	ThumbCMC			ThumbMCP			ThumbIP			ThumbTip			IndexMCP			IndexPIP			IndexTip			MiddleMCP			MiddlePIP			MiddleTip			RingMCP			RingPIP			RingTip			PinkyMCP			PinkyPIP			PinkyTip			BackHand1			BackHand2			BackHand3	
		X0	Y0	Z0	X1	Y1	Z1	X2	Y2	Z2	X3	Y3	Z3	X4	Y4	Z4	X5	Y5	Z5	X6	Y6	Z6	X7	Y7	Z7	X8	Y8	Z8	X9	Y9	Z9	X10	Y10	Z10	X11	Y11	Z11	X12	Y12	Z12	X13	Y13	Z13	X14	Y14	Z14	X15	Y15	Z15	X16	Y16	Z16	X17	Y17	Z17	X18	Y18	Z18	
59	0.491667	-346.015	41.621	9.40197	-348.486	59.1991	-15.9312	-355.885	82.12	-38.198	-359.847	98.7939	-58.4386	-386.654	20.1253	-68.3243	-362.983	29.3885	-88.8887	-335.965	30.3868	-71.8549	-379.886	-5.56397	-75.1327	-354.157	8.02326	-93.9642	-327.877	13.1041	-62.5005	-370.018	-23.42	-75.4831	-348.322	-7.97803	-94.048	-322.522	4.00289	-70.2395	-361.65	-45.6982	-50.1647	-380.457	-52.5946	-76.4872	-391.959	-53.7962	-94.2699	-358.947	-33.4873	-7.84527	-347.814	-32.265	21.3531	-369.655	4.38755	9.84938	
60	0.5	-333.828	50.8834	11.5661	-331.566	67.6855	-13.3113	-333.522	95.7302	-38.5439	-331.805	109.904	-54.4368	-381.284	40.2865	-59.2232	-360.847	41.4115	-86.8179	-326.632	36.9331	-68.1284	-382.749	21.2011	-69.955	-355.537	21.76	-91.7542	-324.356	24.6228	-61.3076	-379.335	-3.26295	-70.9023	-355.425	2.04826	-93.1492	-328.124	10.1858	-73.5518	-376.942	-25.3352	-46.7985	-395.535	-28.763	-69.1556	-411.595	-27.6901	-87.6296	-370.231	-12.9509	-8.75969	-354.52	-16.7661	24.6931	-364.981	16.9782	11.1546	
61	0.508333	-313.582	57.5194	10.7209	-304.137	72.7622	-13.2167	-295.968	96.0749	-35.8107	-289.095	113.378	-54.3155	-366.236	62.9325	-56.3053	-347.264	57.0526	-84.8889	-316.127	44.9437	-70.0358	-373.524	46.3919	-67.6922	-346.67	35.8818	-88.9529	-318.828	26.8666	-61.9272	-380.907	20.8533	-65.3408	-358.849	21.72	-90.1052	-328.187	12.8953	-70.9267	-388.326	-0.593416	-42.3328	-406.066	7.49272	-63.2432	-418.461	16.0781	-82.2314	-372.291	9.36014	-5.6293	-358.638	2.18263	24.6533	-353.962	42.1203	17.6032	
62	0.516667	-289.354	51.7169	9.46873	-277.419	63.6201	-18.7097	-262.464	77.7662	-39.3983	-251.05	92.0886	-61.1833	-338.727	80.5458	-58.2541	-327.186	67.9642	-85.0238	-305.803	38.8362	-70.3332	-354.988	66.9269	-62.9128	-334.367	48.0042	-88.4378	-315.105	24.0043	-64.1219	-371.099	47.8256	-62.6459	-354.118	39.9583	-87.2482	-327.024	18.6061	-68.5389	-383.106	30.233	-35.8172	-399.81	43.1326	-55.4542	-413.65	56.8301	-73.0991	-360.893	34.036	3.91711	-349.917	23.185	29.4754	-332.699	54.5424	17.0313	
63	0.525	-270.265	38.2702	4.68569	-255.567	43.225	-21.9372	-238.892	52.3921	-47.3188	-225.661	58.4103	-69.9154	-309.126	77.9654	-61.3122	-305.368	58.4212	-88.8165	-292.795	27.3608	-74.8463	-331.849	70.2527	-66.7395	-322.069	46.7703	-90.0922	-304.631	19.7372	-64.8146	-350.649	58.9231	-59.0846	-339.993	41.8453	-86.2982	-322.667	16.0189	-68.7	-364.286	47.5362	-31.8576	-381.171	63.3032	-50.9801	-388.268	82.1577	-69.3773	-340.897	47.4358	2.65452	-338.644	33.1768	33.3237	-307.612	59.3225	13.5314	
64	0.533333	-255.553	28.4816	1.75413	-237.523	25.6598	-22.5496	-218.694	33.3966	-55.0098	-209.376	31.5133	-74.22	-288.464	65.5429	-69.4073	-288.242	42.1451	-93.6078	-279.835	13.6772	-80.4149	-308.756	63.0861	-71.2257	-307.043	31.245	-91.6296	-294.739	6.48969	-62.7387	-333.639	54.5204	-65.2853	-326.921	32.6005	-87.7139	-309.199	7.22059	-66.2867	-345.515	50.5711	-35.5044	-359.631	66.9378	-54.154	-370.473	80.9771	-70.1889	-323.211	48.7154	0.132725	-317.792	37.1016	29.9574	-285.316	52.4215	8.64097	
65	0.541667	-236.766	19.5661	1.45167	-219.235	17.6531	-26.6681	-202.646	15.106	-50.9803	-189.488	14.451	-72.8302	-266.987	50.9699	-70.0513	-271.085	24.9178	-94.9655	-264.972	-6.46571	-76.8	-289.977	47.2308	-75.9653	-292.209	13.8006	-92.1791	-282.636	-9.09337	-63.2459	-310.513	40.4463	-69.9558	-307.684	14.333	-87.8345	-294.722	-8.5498	-64.0999	-328.29	42.5541	-41.4033	-342.8	53.4217	-59.9814	-345.583	69.7752	-79.1504	-304.152	40.6035	-2.01271	-302.729	36.7785	26.3936	-269.599	46.344	6.69643	
66	0.55	-220.019	10.6895	2.73289	-201.218	5.70948	-19.9336	-184.91	2.98223	-49.6352	-169.882	-1.43331	-68.7954	-249.53	32.9966	-72.8623	-253.282	5.70045	-95.5744	-248.885	-23.0902	-72.9116	-276.443	28.1786	-78.7855	-273.523	-2.95568	-93.9544	-264.914	-25.1759	-57.149	-296.855	22.405	-71.8594	-295.984	-5.90021	-87.0327	-279.133	-24.9704	-63.087	-313.96	26.4687	-40.9638	-323.414	36.2472	-65.4802	-334.699	47.5312	-84.7094	-288.169	33.6902	-4.59865	-286.701	29.6128	23.7215	-252.935	38.434	4.11737	
67	0.558333	-211.055	6.3615	3.81124	-193.924	-2.28292	-17.4331	-173.359	-6.18265	-46.271	-162.849	-12.8419	-67.197	-244.266	15.8445	-74.3598	-244.719	-12.5654	-91.964	-239.893	-38.2467	-66.9347	-268.179	10.5156	-77.2287	-266.472	-24.9555	-86.631	-257.659	-39.9941	-51.3579	-288.151	6.09937	-71.7533	-283.792	-25.772	-81.267	-268.396	-38.8002	-53.0562	-307.971	15.7175	-48.0781	-318.344	20.2565	-71.9675	-324.758	27.5297	-95.6745	-281.567	27.973	-7.90666	-277.306	26.1214	20.4187	-244.881	31.8028	0.319591	
68	0.566667	-208.676	6.98042	6.15833	-189.254	-0.923483	-15.0753	-172.427	-5.90859	-40.3424	-154.105	-12.3101	-58.6885	-239.274	0.720994	-76.6548	-238.395	-32.9472	-85.069	-234.545	-48.6619	-55.379	-264.161	-5.48106	-77.2331	-259.84	-40.6874	-80.3473	-245.507	-50.7315	-44.269	-281.462	-9.9229	-69.9208	-275.442	-42.4743	-75.7844	-262.222	-52.7692	-45.2862	-306.443	-1.14758	-47.7501	-313.218	-1.49367	-74.0911	-318.691	0.448663	-96.9709	-279.911	19.4161	-14.2392	-279.681	24.4473	19.1273	-246.06	27.4393	-3.44465	
69	0.575	-215.583	17.8487	6.74561	-192.426	15.1554	-16.4511	-169.679	14.8614	-39.8442	-150.792	11.3021	-53.3284	-233.434	-4.52505	-76.6938	-226.139	-37.9222	-77.9859	-219.406	-47.882	-46.6128	-257.927	-20.6834	-76.6511	-245.043	-51.7437	-73.4623	-230.049	-51.944	-33.6758	-277.343	-28.7358	-67.8891	-262.977	-56.7238	-70.1526	-243.797	-55.8591	-38.4526	-302.619	-20.7109	-49.0833	-307.506	-27.0855	-73.2718	-315.669	-30.9703	-93.1269	-285.311	10.8133	-12.9257	-285.172	17.8726	19.8093	-252.874	28.1828	-5.56428	
